<svg xmlns="http://www.w3.org/2000/svg" aria-hidden="true" >
  <defs>
    <symbol id="icon-heart" viewBox="0 0 37 32">
      <path d="m18.286 11.968-2.043-4.089c-.507-1.013-1.387-2.469-2.633-3.646-1.225-1.159-2.693-1.947-4.466-1.947-3.831 0-6.857 3.031-6.857 6.674 0 2.768 1.266 4.722 4.27 7.703.77.763 1.648 1.589 2.619 2.498 2.533 2.377 5.682 5.335 9.111 9.289 3.429-3.954 6.578-6.912 9.111-9.289.971-.91 1.851-1.737 2.619-2.498 3.003-2.981 4.27-4.935 4.27-7.703 0-3.643-3.026-6.674-6.857-6.674-1.776 0-3.241.789-4.466 1.947-1.246 1.177-2.126 2.633-2.633 3.646l-2.043 4.089zm.896 18.953a1.176 1.176 0 0 1-1.39.307 1.176 1.176 0 0 1-.402-.307c-3.659-4.347-6.971-7.456-9.698-10.014C2.972 16.475.001 13.689.001 8.96.001 4.011 4.092 0 9.144 0c3.657 0 6.215 2.4 7.781 4.59a17.27 17.27 0 0 1 1.362 2.267 17.41 17.41 0 0 1 1.362-2.267C21.215 2.398 23.772 0 27.43 0c5.051 0 9.143 4.011 9.143 8.96 0 4.729-2.971 7.515-7.691 11.947-2.727 2.56-6.039 5.671-9.698 10.014z"/>
    </symbol>
  </defs>
</svg>