<svg xmlns="http://www.w3.org/2000/svg" aria-hidden="true" style="position:absolute;width:0;height:0;overflow:hidden">
  <defs>
    <symbol id="icon-radio" viewBox="0 0 34 32">
      <path d="M15.556 3.778a1.114 1.114 0 0 1 1.111-1.111h15.556a1.114 1.114 0 0 1 1.111 1.111V6a1.114 1.114 0 0 1-1.111 1.111H16.667A1.114 1.114 0 0 1 15.556 6V3.778zM0 24.889a6.67 6.67 0 0 1 11.381-4.714A6.668 6.668 0 1 1 0 24.889zm15.556-3.333a1.114 1.114 0 0 1 1.111-1.112h15.556a1.11 1.11 0 0 1 1.111 1.112v2.222a1.114 1.114 0 0 1-1.111 1.112H16.667a1.11 1.11 0 0 1-1.111-1.112v-2.222zm0-11.112a1.114 1.114 0 0 1 1.111-1.111h11.111a1.114 1.114 0 0 1 1.112 1.111 1.11 1.11 0 0 1-1.112 1.111H16.667a1.114 1.114 0 0 1-1.111-1.111zm0 17.778a1.114 1.114 0 0 1 1.111-1.112h11.111a1.11 1.11 0 0 1 .786 1.898 1.109 1.109 0 0 1-.786.326H16.667a1.11 1.11 0 0 1-1.111-1.112zM6.667.444A6.668 6.668 0 0 0 .508 4.559a6.668 6.668 0 0 0 6.159 9.217 6.67 6.67 0 0 0 4.714-11.381A6.67 6.67 0 0 0 6.667.442zm0 10a3.333 3.333 0 1 1 0-6.667 3.333 3.333 0 0 1 0 6.667z"/>
    </symbol>
  </defs>
</svg>