<svg xmlns="http://www.w3.org/2000/svg" width="32" height="32"  style="position:absolute;width:0;height:0;overflow:hidden">
  <defs>
    <symbol id="icon-Rating" viewBox="0 0 34 32">
      <path fill="#ffc531" d="M16.123 1.788a1.067 1.067 0 0 1 1.887 0l4.028 7.635c.154.293.436.497.761.553l8.506 1.472a1.066 1.066 0 0 1 .583 1.794l-6.017 6.19c-.23.237-.338.568-.291.895l1.229 8.544a1.066 1.066 0 0 1-1.526 1.109l-7.747-3.809a1.066 1.066 0 0 0-.941 0L8.848 29.98a1.066 1.066 0 0 1-1.526-1.109l1.229-8.544a1.065 1.065 0 0 0-.291-.895l-6.016-6.19a1.066 1.066 0 0 1 .583-1.794l8.506-1.472c.326-.056.607-.261.762-.553l4.028-7.635z" style="fill:var(--color1, #ffc531)"/>
    </symbol>
  </defs>
</svg>